PathFileType	4	(X/Y/Z)	Patient4_TMGait_0pt8_01_right_05.trc.trc
DataRate	CameraRate	NumFrames	NumMarkers	Units	OrigDataRate	OrigDataStartFrame	OrigNumFrames
88.607594936709	88.607594936709	4	33	mm	88.607594936709	71	       141
Frame#	Time	Sacral			L.Shoulder			Chest			R.Shoulder			Neck			R.ASIS			L.ASIS			R.Thigh.Superior			R.Thigh.Lateral			R.Thigh.Inferior			R.Patella			L.Thigh.Superior			L.Thigh.Lateral			L.Thigh.Inferior			L.Patella			L.Shank.Superior			L.Shank.Lateral			L.Shank.Inferior			R.Shank.Superior			R.Shank.Lateral			R.Shank.Inferior			R.Heel			R.Midfoot.Superior			R.Midfoot.Lateral			R.Toe			L.Heel			L.Midfoot.Lateral			L.Midfoot.Superior			L.Toe			L.Elbow			L.Wrist			R.Elbow			R.Wrist			
		X1	Y1	Z1	X2	Y2	Z2	X3	Y3	Z3	X4	Y4	Z4	X5	Y5	Z5	X6	Y6	Z6	X7	Y7	Z7	X8	Y8	Z8	X9	Y9	Z9	X10	Y10	Z10	X11	Y11	Z11	X12	Y12	Z12	X13	Y13	Z13	X14	Y14	Z14	X15	Y15	Z15	X16	Y16	Z16	X17	Y17	Z17	X18	Y18	Z18	X19	Y19	Z19	X20	Y20	Z20	X21	Y21	Z21	X22	Y22	Z22	X23	Y23	Z23	X24	Y24	Z24	X25	Y25	Z25	X26	Y26	Z26	X27	Y27	Z27	X28	Y28	Z28	X29	Y29	Z29	X30	Y30	Z30	X31	Y31	Z31	X32	Y32	Z32	X33	Y33	Z33	

71	6.110000000000	836.260705098184	996.959800597795	527.980319546292	985.143266646474	1418.299813868977	322.627666271844	1107.599324779014	1353.098849952728	471.245615020449	1046.466337265172	1431.302079217874	652.233998829202	990.112070111109	1482.207066462649	478.621177739525	1069.153034474354	927.230884822376	622.499323969309	1032.032475520112	945.677240554590	348.885402879338	1055.098325026695	712.712724835924	595.090474486580	946.532879360558	623.751947389387	659.832154504526	998.549042691534	555.804486946902	576.846708313514	973.935338309447	471.202448461478	580.411728861384	1110.066365271614	766.499873403277	384.759545183199	1063.606068162331	636.976922357395	304.933116359448	1166.575814087152	579.928606674534	369.068489529982	1196.109341067188	519.777104983759	365.454190254728	1185.767475287053	448.631674868233	355.059429662586	1133.344349218815	311.460731976077	308.433809055740	1232.566264853952	224.103095896899	363.248269449475	930.977548142872	389.738935281550	588.426224515571	845.198736051138	299.385787441997	652.613715659860	865.608212002807	199.883876309964	586.423200337598	708.319726209565	46.832991059974	557.326080149546	880.443108655397	96.406992217782	592.738724173829	791.006584256788	37.606300801609	631.128833218935	999.452349516686	39.728949988399	621.750389828710	1170.460317080335	39.810831639950	407.052304568440	1244.808216137413	47.218170432238	327.579299931745	1307.206122311886	131.782321503068	345.338193902036	1443.184517560606	113.967168857800	322.234704183451	844.963450816420	1093.068186545209	236.843456992916	790.780519491309	840.470734638925	261.894187366552	1217.385612601775	1141.777300281191	764.322467998305	1455.969456071986	1201.558669331493	698.262776980326	
72	6.121285714286	837.759818952589	995.605371585849	525.765691517189	985.813952835215	1417.110918791274	321.041792791087	1108.356136007418	1351.972975959045	469.603372631792	1046.887349696237	1430.018417284238	650.511139001805	990.530457346995	1480.733981622517	477.102911943688	1070.241062025861	925.592733960130	621.130569379698	1034.130710055928	943.891549013607	347.274600143385	1054.797214728514	710.860570448200	594.243928366555	945.167854966377	622.751535161032	658.708717372098	997.016587558998	554.159723102937	576.129089783801	971.450825639853	469.233122342904	579.621427438544	1112.191861214146	764.798789972677	383.107994287480	1063.558925271050	634.266844062027	305.377151905676	1167.549108017702	577.924040720793	367.908149111421	1196.075173342631	516.859774520382	365.188378003402	1185.317801704544	445.383447152495	355.274401973734	1130.891383473908	308.530583845873	310.486202849220	1229.682142354590	220.607341134826	364.909811073157	927.187220602104	388.373437161165	587.761183303143	839.943078281196	299.558726836400	652.271559504221	858.632877914173	199.588006450142	586.384857313493	699.369518079788	47.962849513292	557.700569659346	871.791335034028	96.555671044558	592.951730157367	782.110193141314	37.989057482069	631.303813806523	990.524674849757	39.351152718354	621.883042198098	1165.441353037357	38.588349520029	410.172388792842	1238.442452265320	45.073585560301	329.382384478057	1303.172513335670	127.322078675980	347.025606731266	1438.155555946978	106.212744159656	321.260451887920	841.291412413295	1094.465767830507	236.324515033431	782.917703383279	842.819293810215	262.541923844585	1220.421407828555	1142.367387687303	761.410171455213	1455.250962672523	1212.054580274811	693.992433876283	
73	6.132571428571	839.290801294904	994.269007178281	523.366866261458	986.632008419654	1415.865379206732	319.266200492791	1109.211356055907	1350.860232414639	467.849320394406	1047.313693561849	1428.751100700319	648.674491663115	991.022097185749	1479.277710049117	475.385123684317	1071.412954868170	923.968111632841	619.732663369932	1036.385416933534	942.159261023069	345.612798302995	1054.803205522435	709.039085221728	593.405140154829	944.155644049173	621.712479497268	657.482738829479	995.992933634398	552.468639360001	575.384546816536	969.512493517201	467.101832776875	578.805273125692	1114.556902240419	763.248356261602	381.395970576564	1063.942991787566	631.812147610097	305.744479333519	1168.921845244621	576.193845926954	366.832791455495	1196.291434037966	514.022922444827	365.078437028931	1185.052500881380	442.148938232396	355.537433418747	1128.388962607962	305.817247894198	312.215581660969	1226.244873458596	216.956041446642	366.494788747880	923.818006608673	386.945225727265	587.048536786866	834.988380347768	299.798440277200	651.847684828749	851.848474656582	199.353969809589	586.331609854101	690.438602354455	49.367753175751	558.134143858882	863.247609351403	96.745382136822	593.184407400125	773.245324595602	38.493915764344	631.520577921643	981.625090240286	39.002204589371	622.011725816240	1158.878165857145	37.627407257955	412.874915627367	1230.702745183980	42.944016401648	330.900589392775	1298.217797231825	122.394975517133	348.741565822122	1432.086129999314	97.211767555158	320.531975528417	838.393939870935	1095.472715757951	235.747852293013	776.250708230379	844.758795771144	262.934836999442	1222.792094970536	1142.461674743304	758.573094447803	1453.726478898331	1221.173749330394	689.958215834693	
74	6.143857142857	840.820789030100	992.989783660890	520.827343594863	987.605353845566	1414.596065324826	317.307531900855	1110.163724003195	1349.794233813976	465.998216745023	1047.755348999535	1427.547265823841	646.738284826713	991.603708010839	1477.889545211501	473.469226953751	1072.658110978673	922.401890747226	618.296532477535	1038.740037645212	940.557228028452	343.917757204657	1055.119565548227	707.291684501882	592.553348528218	943.531456629901	620.652703619969	656.150517946757	995.515619760214	550.760412188947	574.598713363986	968.191386767706	464.812851215502	577.984865935025	1117.076734622908	761.888784366718	379.688179460170	1064.810352542479	629.754212276304	305.905946289096	1170.638338928428	574.796642442967	365.845763008411	1196.739091240641	511.415029547949	365.071835063984	1185.013073351145	439.102390275640	355.773596316938	1126.083380965250	303.455980182917	313.430591973738	1222.527339244686	213.384994456548	367.889065219602	920.901267277332	385.477415610370	586.305180336842	830.363951914512	300.150935801844	651.353163265504	845.293933314334	199.223148331427	586.276718702880	681.549346487377	51.126611546588	558.623868662494	854.848769895833	96.975271072861	593.447309106171	764.420661432363	39.161557441959	631.776773774596	972.748201150955	38.691766292688	622.128537999050	1151.253741745079	36.980088335225	415.030535100256	1222.147989216199	40.973668822967	332.077936187765	1292.667690014159	117.356883402838	350.390718059008	1425.368937583653	87.657760368799	320.133288897719	836.311205760188	1096.059660611918	235.072927675947	770.845962877441	846.232866305086	263.037523488272	1224.463791070086	1142.046212649835	755.857043333474	1451.484983690418	1228.886442100832	686.174253369686	
